<?xml version="1.0" encoding="utf-8"?>
<!-- Generator: Adobe Illustrator 17.1.0, SVG Export Plug-In . SVG Version: 6.00 Build 0)  -->
<!DOCTYPE svg PUBLIC "-//W3C//DTD SVG 1.1//EN" "http://www.w3.org/Graphics/SVG/1.1/DTD/svg11.dtd">
<svg version="1.1" id="Capa_1" xmlns="http://www.w3.org/2000/svg" xmlns:xlink="http://www.w3.org/1999/xlink" x="0px" y="0px"
	 viewBox="143.4 0 19.1 30" enable-background="new 143.4 0 19.1 30" xml:space="preserve">
<g>
	<g>
		<path fill="#92B58C" d="M153,30l-0.4-0.7c-0.1-0.1-5.6-9.8-7.1-12.6c-1-1.8-2.1-4.8-2.1-7.1c0-5.3,4.3-9.6,9.6-9.6
			c5.3,0,9.6,4.3,9.6,9.6c0,2.3-1.1,5.4-2.1,7.1c-1.8,3.1-7.1,12.5-7.1,12.6L153,30z M153,0.9c-4.8,0-8.7,3.9-8.7,8.7
			c0,2.1,1,4.9,2,6.7c1.3,2.4,5.4,9.7,6.7,11.9c1.3-2.2,5.2-9.3,6.8-12c1-1.7,1.9-4.6,1.9-6.7C161.7,4.8,157.8,0.9,153,0.9z
			 M153,13.9c-2.4,0-4.3-1.9-4.3-4.3c0-2.4,1.9-4.3,4.3-4.3c2.4,0,4.3,1.9,4.3,4.3C157.3,11.9,155.4,13.9,153,13.9z M153,6.1
			c-1.9,0-3.5,1.6-3.5,3.5c0,1.9,1.6,3.5,3.5,3.5c1.9,0,3.5-1.6,3.5-3.5C156.4,7.6,154.9,6.1,153,6.1z"/>
	</g>
</g>
</svg>
