<?xml version="1.0" encoding="utf-8"?>
<!-- Generator: Adobe Illustrator 17.1.0, SVG Export Plug-In . SVG Version: 6.00 Build 0)  -->
<!DOCTYPE svg PUBLIC "-//W3C//DTD SVG 1.1//EN" "http://www.w3.org/Graphics/SVG/1.1/DTD/svg11.dtd">
<svg version="1.1" id="Capa_1" xmlns="http://www.w3.org/2000/svg" xmlns:xlink="http://www.w3.org/1999/xlink" x="0px" y="0px"
	 viewBox="0 276.6 30 27.2" enable-background="new 0 276.6 30 27.2" xml:space="preserve">
<path fill="#92B58C" d="M11.9,292.1c-0.1,1.5,0.5,2.8,1.6,3.4c0.5,0.3,1,0.4,1.5,0.4c0.5,0,1-0.1,1.5-0.4c1.1-0.6,1.6-1.9,1.6-3.4
	c-0.1-1.9-1.6-2.8-3-2.9c0,0,0,0,0,0C13.6,289.3,12,290.2,11.9,292.1z M13.3,292.2c0-1.1,0.9-1.5,1.7-1.6c0.8,0,1.7,0.5,1.7,1.6
	c0,1-0.3,1.8-0.9,2.2c-0.5,0.3-1.1,0.3-1.6,0C13.6,294,13.3,293.2,13.3,292.2z M22.7,292.1c-0.1,1.5,0.5,2.8,1.6,3.4
	c0.5,0.3,1,0.4,1.5,0.4s1-0.1,1.5-0.4c1.1-0.6,1.6-1.9,1.6-3.4c-0.1-1.9-1.6-2.8-3-2.9c0,0,0,0,0,0
	C24.3,289.3,22.8,290.2,22.7,292.1z M24,292.2c0-1.1,0.9-1.5,1.7-1.6c0.8,0,1.7,0.5,1.7,1.6c0,1-0.3,1.8-0.9,2.2
	c-0.5,0.3-1.1,0.3-1.6,0C24.3,294,24,293.2,24,292.2z M18.9,282.8c0.5,0.3,1,0.4,1.5,0.4c0.5,0,1-0.1,1.5-0.4
	c1.1-0.6,1.6-1.9,1.6-3.4c-0.1-1.9-1.6-2.8-3-2.9c0,0,0,0,0,0c-1.4,0-3,1-3,2.9C17.3,280.9,17.8,282.2,18.9,282.8z M18.7,279.5
	c0-1.1,0.9-1.5,1.7-1.6c0.8,0,1.7,0.5,1.7,1.6c0,1-0.3,1.8-0.9,2.2c-0.5,0.3-1.1,0.3-1.6,0C19,281.3,18.6,280.5,18.7,279.5z
	 M2.8,295.5c0.5,0.3,1,0.4,1.5,0.4s1-0.1,1.5-0.4c1.1-0.6,1.6-1.9,1.6-3.4c-0.1-1.9-1.6-2.8-3-2.9c0,0,0,0,0,0c-1.4,0-3,1-3,2.9
	C1.1,293.6,1.7,294.9,2.8,295.5z M2.5,292.2c0-1.1,0.9-1.5,1.7-1.6c0.8,0,1.7,0.5,1.7,1.6c0,1-0.3,1.8-0.9,2.2
	c-0.5,0.3-1.1,0.3-1.6,0C2.8,294,2.5,293.2,2.5,292.2z M19.2,302.9c0.1,0.4-0.2,0.7-0.5,0.8c0,0-0.1,0-0.1,0c-0.3,0-0.6-0.2-0.7-0.5
	l-0.6-3.2c-0.2-1.1-1.3-1.6-2.3-1.6s-2.1,0.5-2.3,1.6l-0.4,2.4h3.1c0.4,0,0.7,0.3,0.7,0.7s-0.3,0.7-0.7,0.7h-3.9
	c-0.2,0-0.4-0.1-0.5-0.3c-0.1-0.2-0.2-0.4-0.1-0.6l0.6-3.2c0.3-1.9,2.1-2.7,3.7-2.7c1.6,0,3.3,0.8,3.7,2.7L19.2,302.9z M20.4,285.8
	c-1,0-2.1,0.5-2.3,1.6c-0.1,0.4-0.4,0.6-0.8,0.5c-0.4-0.1-0.6-0.4-0.5-0.8c0.3-1.9,2.1-2.7,3.7-2.7c1.6,0,3.3,0.8,3.7,2.7
	c0.1,0.4-0.2,0.7-0.5,0.8c0,0-0.1,0-0.1,0c-0.3,0-0.6-0.2-0.7-0.6C22.5,286.3,21.4,285.8,20.4,285.8z M29.4,303.7c0,0-0.1,0-0.1,0
	c-0.3,0-0.6-0.2-0.7-0.5l-0.6-3.2c-0.2-1.1-1.3-1.6-2.3-1.6s-2.1,0.5-2.3,1.6l-0.4,2.4H26c0.4,0,0.7,0.3,0.7,0.7s-0.3,0.7-0.7,0.7
	h-3.9c-0.2,0-0.4-0.1-0.5-0.3c-0.1-0.2-0.2-0.4-0.1-0.6l0.6-3.2c0.3-1.9,2.1-2.7,3.7-2.7c1.6,0,3.3,0.8,3.7,2.7l0.6,3.2
	C30.1,303.3,29.8,303.7,29.4,303.7z M8.2,282.8c0.5,0.3,1,0.4,1.5,0.4c0.5,0,1-0.1,1.5-0.4c1.1-0.6,1.6-1.9,1.6-3.4
	c-0.1-1.9-1.6-2.8-3-2.9c0,0,0,0,0,0c-1.4,0-3,1-3,2.9C6.5,280.9,7.1,282.2,8.2,282.8z M7.9,279.5c0-1.1,0.9-1.5,1.7-1.6
	c0.8,0,1.7,0.5,1.7,1.6c0,1-0.3,1.8-0.9,2.2c-0.5,0.3-1.1,0.3-1.6,0C8.2,281.3,7.9,280.5,7.9,279.5z M8.5,302.9
	c0.1,0.4-0.2,0.7-0.5,0.8c0,0-0.1,0-0.1,0c-0.3,0-0.6-0.2-0.7-0.5L6.6,300c-0.2-1.1-1.3-1.6-2.3-1.6c-1,0-2.1,0.5-2.3,1.6l-0.4,2.4
	h3.3c0.4,0,0.7,0.3,0.7,0.7s-0.3,0.7-0.7,0.7H0.7c-0.2,0-0.4-0.1-0.5-0.3S0,303.1,0,302.9l0.6-3.2c0.3-1.9,2.1-2.7,3.7-2.7
	c1.6,0,3.3,0.8,3.7,2.7L8.5,302.9z M9.6,285.8c-1,0-2.1,0.5-2.3,1.6c-0.1,0.4-0.4,0.6-0.8,0.5c-0.4-0.1-0.6-0.4-0.5-0.8
	c0.3-1.9,2.1-2.7,3.7-2.7s3.3,0.8,3.7,2.7c0.1,0.4-0.2,0.7-0.5,0.8c0,0-0.1,0-0.1,0c-0.3,0-0.6-0.2-0.7-0.6
	C11.8,286.3,10.6,285.8,9.6,285.8z"/>
</svg>
