<?xml version="1.0" encoding="utf-8"?>
<!-- Generator: Adobe Illustrator 17.1.0, SVG Export Plug-In . SVG Version: 6.00 Build 0)  -->
<!DOCTYPE svg PUBLIC "-//W3C//DTD SVG 1.1//EN" "http://www.w3.org/Graphics/SVG/1.1/DTD/svg11.dtd">
<svg version="1.1" id="Capa_1" xmlns="http://www.w3.org/2000/svg" xmlns:xlink="http://www.w3.org/1999/xlink" x="0px" y="0px"
	 viewBox="0 41.8 30 23.6" enable-background="new 0 41.8 30 23.6" xml:space="preserve">
<g>
	<g>
		<path fill="#92B58C" d="M30,65.4H0V41.8h30V65.4z M0.9,64.5h28.2V42.7H0.9V64.5z"/>
	</g>
	<g>
		<path fill="#92B58C" d="M10,60.5H3.5V54H10V60.5z M4.4,59.6h4.7v-4.7H4.4V59.6z"/>
	</g>
	<g>
		<path fill="#92B58C" d="M6.7,52.3c-1.8,0-3.2-1.5-3.2-3.2c0-1.8,1.5-3.2,3.2-3.2c1.8,0,3.2,1.5,3.2,3.2C10,50.8,8.5,52.3,6.7,52.3
			z M6.7,46.7c-1.3,0-2.4,1.1-2.4,2.4c0,1.3,1.1,2.4,2.4,2.4c1.3,0,2.4-1.1,2.4-2.4S8,46.7,6.7,46.7z"/>
	</g>
	<g>
		<rect x="15.6" y="45.8" fill="#92B58C" width="10.8" height="0.9"/>
	</g>
	<g>
		<rect x="15.6" y="50.2" fill="#92B58C" width="10.8" height="0.9"/>
	</g>
	<g>
		<rect x="15.6" y="54.7" fill="#92B58C" width="10.8" height="0.9"/>
	</g>
	<g>
		<rect x="15.6" y="59.2" fill="#92B58C" width="10.8" height="0.9"/>
	</g>
</g>
</svg>
