<?xml version="1.0" encoding="utf-8"?>
<!-- Generator: Adobe Illustrator 17.1.0, SVG Export Plug-In . SVG Version: 6.00 Build 0)  -->
<!DOCTYPE svg PUBLIC "-//W3C//DTD SVG 1.1//EN" "http://www.w3.org/Graphics/SVG/1.1/DTD/svg11.dtd">
<svg version="1.1" id="Capa_1" xmlns="http://www.w3.org/2000/svg" xmlns:xlink="http://www.w3.org/1999/xlink" x="0px" y="0px"
	 viewBox="0 414.5 50 35.8" enable-background="new 0 414.5 50 35.8" xml:space="preserve">
<path fill="#FFFFFF" d="M47.6,436.5c-1.5-1.5-3.5-2.4-5.7-2.4c-1.6,0-3.1,0.5-4.4,1.3l-6-8.1c1-1.4,1.5-3,1.5-4.7
	c0-2.2-0.8-4.2-2.4-5.7c-1.5-1.5-3.5-2.4-5.7-2.4c-2.2,0-4.2,0.8-5.7,2.4c-1.5,1.5-2.4,3.5-2.4,5.7c0,1.7,0.5,3.4,1.5,4.7l-6,8.1
	c-1.3-0.8-2.8-1.3-4.4-1.3c-2.2,0-4.2,0.8-5.7,2.4c-3.1,3.1-3.1,8.3,0,11.4c1.5,1.5,3.5,2.4,5.7,2.4c2.2,0,4.2-0.8,5.7-2.4
	c2.8-2.8,3.1-7.3,0.8-10.4l6-8.1c1.3,0.8,2.8,1.3,4.4,1.3c1.6,0,3.1-0.5,4.4-1.3l6,8.1c-2.3,3.1-2,7.6,0.8,10.4
	c1.5,1.5,3.5,2.4,5.7,2.4c2.2,0,4.2-0.8,5.7-2.4C50.8,444.8,50.8,439.7,47.6,436.5z M11.7,445.8c-1,1-2.3,1.5-3.6,1.5
	c-1.4,0-2.7-0.5-3.6-1.5c-2-2-2-5.2,0-7.2c1-1,2.3-1.5,3.6-1.5c1.4,0,2.7,0.5,3.6,1.5c0,0,0,0,0,0C13.7,440.6,13.7,443.9,11.7,445.8
	z M21.4,426.2C21.4,426.2,21.4,426.2,21.4,426.2c-1-1-1.5-2.3-1.5-3.6c0-1.4,0.5-2.7,1.5-3.6c1-1,2.3-1.5,3.6-1.5
	c1.4,0,2.7,0.5,3.6,1.5c1,1,1.5,2.3,1.5,3.6c0,1.4-0.5,2.7-1.5,3.6c0,0,0,0,0,0c0,0,0,0,0,0c-1,1-2.3,1.5-3.6,1.5
	C23.6,427.7,22.3,427.2,21.4,426.2z M45.6,445.8c-1,1-2.3,1.5-3.6,1.5s-2.7-0.5-3.6-1.5c-2-2-2-5.2,0-7.2c0,0,0,0,0,0l0,0
	c1-1,2.3-1.5,3.6-1.5c1.4,0,2.7,0.5,3.6,1.5C47.6,440.6,47.6,443.9,45.6,445.8z"/>
</svg>
