<?xml version="1.0" encoding="utf-8"?>
<!-- Generator: Adobe Illustrator 17.1.0, SVG Export Plug-In . SVG Version: 6.00 Build 0)  -->
<!DOCTYPE svg PUBLIC "-//W3C//DTD SVG 1.1//EN" "http://www.w3.org/Graphics/SVG/1.1/DTD/svg11.dtd">
<svg version="1.1" id="Capa_1" xmlns="http://www.w3.org/2000/svg" xmlns:xlink="http://www.w3.org/1999/xlink" x="0px" y="0px"
	 viewBox="0 209.5 1440 1440" enable-background="new 0 209.5 1440 1440" xml:space="preserve">
<g>
	<g id="User">
		<g>
			<path fill="#92B58C" d="M720,1199.5c225,0,405-220.5,405-495s-180-495-405-495c-108,0-211.5,54-288,148.5S315,574,315,704.5
				C315,979,495,1199.5,720,1199.5z M720,299.5c175.5,0,315,180,315,405s-139.5,405-315,405s-315-180-315-405S544.5,299.5,720,299.5
				z M1035,1109.5c-27,0-45,18-45,45s18,45,45,45c175.5,0,315,139.5,315,315c0,27-18,45-45,45H135c-27,0-45-18-45-45
				c0-175.5,139.5-315,315-315c27,0,45-18,45-45s-18-45-45-45c-225,0-405,180-405,405c0,76.5,58.5,135,135,135h1170
				c76.5,0,135-58.5,135-135C1440,1289.5,1260,1109.5,1035,1109.5z"/>
		</g>
	</g>
</g>
</svg>
